<svg width="895.875" height="1024" xmlns="http://www.w3.org/2000/svg">

 <g>
  <title>background</title>
  <rect fill="none" id="canvas_background" height="402" width="582" y="-1" x="-1"/>
 </g>
 <g>
  <title>Layer 1</title>
  <path fill="#ffffff" id="svg_1" d="m128,768l639.875,0l0,-512l-639.875,0l0,512zm127.938,-384l384,0l0,256l-384,0l0,-256zm-191.938,-191.938l191.938,0l0,-64l-255.938,0l0,255.938l64,0l0,-191.938zm0,447.938l-64,0l0,255.938l255.938,0l0,-63.938l-191.938,0l0,-192zm575.938,-511.938l0,64l191.938,0l0,191.938l64,0l0,-255.938l-255.938,0zm191.937,703.938l-191.937,0l0,63.938l255.938,0l0,-255.938l-64,0l0,192l-0.001,0z"/>
 </g>
</svg>