<svg width="512" height="512" xmlns="http://www.w3.org/2000/svg">

 <g>
  <title>background</title>
  <rect fill="none" id="canvas_background" height="402" width="582" y="-1" x="-1"/>
 </g>
 <g>
  <title>Layer 1</title>
  <path fill="#ffffff" id="svg_2" d="m224,435.8l0,-359.7c0,-6.7 -5.4,-12.1 -12.2,-12.1l-71.6,0c-6.8,0 -12.2,5.4 -12.2,12.1l0,359.7c0,6.7 5.4,12.2 12.2,12.2l71.6,0c6.8,0 12.2,-5.4 12.2,-12.2z"/>
  <path fill="#ffffff" id="svg_3" d="m371.8,64l-71.6,0c-6.7,0 -12.2,5.4 -12.2,12.1l0,359.7c0,6.7 5.4,12.2 12.2,12.2l71.6,0c6.7,0 12.2,-5.4 12.2,-12.2l0,-359.7c0,-6.7 -5.4,-12.1 -12.2,-12.1z"/>
 </g>
</svg>