<svg width="512" height="512" xmlns="http://www.w3.org/2000/svg">

 <g>
  <title>background</title>
  <rect fill="none" id="canvas_background" height="402" width="582" y="-1" x="-1"/>
 </g>
 <g>
  <title>Layer 1</title>
  <polygon fill="#ffffff" points="405.1,371.9 415.8,376.6 429,341.9 422,338.8  " id="XMLID_8_"/>
  <path fill="#ffffff" id="svg_2" d="m406.5,138.1l-301,0c-42.7,0 -77.4,34.6 -77.4,77.4l0,149.1c0,42.7 34.6,77.4 77.4,77.4l13.9,0l-20.9,49.8c-4.3,10.2 8.4,19 16.4,11.4l64.8,-61.2l152.7,0l64.8,61.2c8,7.6 20.7,-1.2 16.4,-11.4l-20.9,-49.8l13.9,0c42.7,0 77.4,-34.6 77.4,-77.4l0,-149.1c-0.1,-42.8 -34.8,-77.4 -77.5,-77.4zm11.5,84.4c7.9,0 14.3,6.4 14.3,14.3c0,7.9 -6.4,14.3 -14.3,14.3c-7.9,0 -14.3,-6.4 -14.3,-14.3c0,-7.9 6.4,-14.3 14.3,-14.3zm0,49.2c7.9,0 14.3,6.4 14.3,14.3c0,7.9 -6.4,14.3 -14.3,14.3c-7.9,0 -14.3,-6.4 -14.3,-14.3c0,-7.9 6.4,-14.3 14.3,-14.3zm-277.3,130.3c-35.2,0 -63.8,-28.5 -63.8,-63.8l0,-96.3c0,-35.2 28.5,-63.8 63.8,-63.8l148.2,0c35.2,0 63.8,28.5 63.8,63.8l0,96.3c0,35.2 -28.5,63.8 -63.8,63.8l-148.2,0zm299.8,-34.7c-5.5,12.4 -20.1,18 -32.5,12.5c-12.4,-5.5 -18,-20.1 -12.5,-32.5c5.5,-12.4 20.1,-18 32.5,-12.5c12.4,5.5 18,20.1 12.5,32.5z"/>
  <path fill="#ffffff" id="XMLID_2_" d="m347.5,12.1c1.9,-5.4 -5.9,-8.7 -8.4,-3.5l-56.2,115.4l24.7,0l39.9,-111.9z"/>
  <path fill="#ffffff" id="XMLID_1_" d="m204.5,124l24.7,0l-56.3,-115.4c-2.5,-5.2 -10.3,-1.9 -8.4,3.5l40,111.9z"/>
 </g>
</svg>