<svg width="512" height="512" xmlns="http://www.w3.org/2000/svg">

 <g>
  <title>background</title>
  <rect fill="none" id="canvas_background" height="402" width="582" y="-1" x="-1"/>
 </g>
 <g>
  <title>Layer 1</title>
  <path fill="#ffffff" id="svg_1" d="m32,255.4c0,65.2 49.5,112.6 110.7,112.6l226.6,0c61.2,0 110.7,-47.4 110.7,-112.6s-49.5,-111.4 -110.7,-111.4l-226.6,0c-61.2,0 -110.7,46.3 -110.7,111.4zm372.8,-22.1c10.7,0 19.4,8.5 19.4,19s-8.7,19 -19.4,19s-19.4,-8.5 -19.4,-19s8.7,-19 19.4,-19zm-42.5,-41.5c10.8,0 19.5,8.5 19.5,19s-8.7,19 -19.5,19c-10.7,0 -19.4,-8.5 -19.4,-19s8.7,-19 19.4,-19zm0,83.1c10.8,0 19.5,8.4 19.5,19c0,10.5 -8.7,18.9 -19.5,18.9c-10.7,0 -19.4,-8.5 -19.4,-18.9c0.1,-10.6 8.7,-19 19.4,-19zm-42.5,-41.6c10.8,0 19.5,8.5 19.5,19s-8.7,19 -19.5,19c-10.7,0 -19.4,-8.5 -19.4,-19s8.7,-19 19.4,-19zm-231.8,12c0,-2.7 1.8,-5.3 4.3,-5.3l1.1,0l34.6,0l0,-38.2l0,-0.6c0,-2.8 2.1,-5.2 4.8,-5.2l21.9,0c2.7,0 5.4,2.4 5.4,5.2l0,0.5l0,38.3l37.2,0l0.6,0c2.7,0 5.2,2.5 5.2,5.3l0,21.7c0,2.9 -2.5,5 -5.2,5l-0.5,0l-37.4,0l0,38.6l0,0.5c0,2.8 -2.7,4.9 -5.4,4.9l-21.9,0c-2.6,0 -4.8,-1.9 -4.8,-4.5l0,-1.1l0,-38.4l-34.8,0l-0.5,0c-2.7,0 -4.6,-2.1 -4.6,-5l0,-21.7z"/>
 </g>
</svg>