<svg width="200" height="200" xmlns="http://www.w3.org/2000/svg">

 <g>
  <title>background</title>
  <rect fill="none" id="canvas_background" height="402" width="582" y="-1" x="-1"/>
 </g>
 <g>
  <title>Layer 1</title>
  <path id="svg_2" fill="#ffffff" d="m97.726,67.643c-1.472,0.808 -2.475,2.375 -2.475,4.167l0,13.8c0,1.791 1.003,3.358 2.475,4.166c0.066,0.032 0.133,0.059 0.195,0.091l0,-0.091c0.62,0.367 1.333,0.58 2.079,0.58c0.749,0 1.459,-0.213 2.077,-0.58l0,0.091c0.064,-0.032 0.133,-0.059 0.195,-0.091c1.472,-0.808 2.475,-2.375 2.475,-4.166l0,-13.799c0,-1.793 -1.003,-3.36 -2.475,-4.167c-0.063,-0.032 -0.131,-0.059 -0.195,-0.091l0,0.091c-0.618,-0.365 -1.329,-0.582 -2.077,-0.582c-0.747,0 -1.459,0.217 -2.079,0.582l0,-0.091c-0.063,0.031 -0.129,0.058 -0.195,0.09z"/>
  <path id="svg_3" fill="#ffffff" d="m49.554,93.174l0,9.329c14.352,8.099 30.833,12.84 48.367,13.188l0,-11.489c-0.063,-0.019 -0.129,-0.029 -0.195,-0.047c-3.804,-1.01 -6.627,-4.494 -6.627,-8.605l0,-23.739c0,-4.114 2.824,-7.597 6.627,-8.605c0.066,-0.018 0.133,-0.03 0.195,-0.046l0,-11.528l-6.823,0c-22.847,0 -41.544,18.696 -41.544,41.542z"/>
  <path id="svg_4" fill="#ffffff" d="m108.905,51.632l-6.828,0l0,11.527c0.064,0.016 0.133,0.028 0.195,0.046c3.808,1.008 6.633,4.491 6.633,8.605l0,23.738c0,4.112 -2.825,7.596 -6.633,8.605c-0.063,0.018 -0.131,0.028 -0.195,0.047l0,11.489c17.537,-0.348 34.02,-5.089 48.369,-13.188l0,-9.329c0,-22.844 -18.696,-41.54 -41.541,-41.54z"/>
  <path id="svg_5" fill="#ffffff" d="m49.554,107.238l0,51.216c0,22.851 18.698,41.546 41.544,41.546l17.807,0c22.845,0 41.541,-18.695 41.541,-41.546l0,-51.216c-15.039,8.065 -32.222,12.643 -50.446,12.643s-35.407,-4.577 -50.446,-12.643z"/>
  <path id="svg_6" fill="#ffffff" d="m103.499,33.339c0.945,-2.226 2.305,-4.205 4.038,-5.882l0.305,-0.292c2.14,-2.07 3.813,-4.507 4.977,-7.247c1.162,-2.74 1.748,-5.641 1.748,-8.616l0,-11.302l-4.151,0l0,11.302c0,2.414 -0.479,4.767 -1.422,6.993c-0.943,2.224 -2.303,4.203 -4.036,5.883l-0.305,0.292c-2.142,2.068 -3.816,4.507 -4.977,7.249c-1.162,2.74 -1.755,5.638 -1.755,8.614l0,11.3l4.156,0l0,-11.3c0,-2.416 0.481,-4.77 1.422,-6.994z"/>
 </g>
</svg>